<svg xmlns="http://www.w3.org/2000/svg" id="Vrstva_2" data-name="Vrstva 2" viewBox="0 0 448.51 491.05"><defs><style>      .cls-1 {        fill: #1f93ac;      }    </style></defs><g id="Vrstva_1-2" data-name="Vrstva 1"><path class="cls-1" d="m226.02,245.53l222.48-128.45c-15.07-24.51-34.31-46.17-56.76-63.99C349.85,19.85,296.86,0,239.24,0,130.5,0,38.29,70.69,6.01,168.61c24.93,21.99,49.64,44.28,74.44,66.44,28.94,25.86,57.87,51.73,86.81,77.59,18.14,16.21,36.34,32.35,54.44,48.62,5.74,5.16,9.24,11.8,9.45,20.11.57,22.31-19.21,36.88-37.77,27.55-11.03-5.54-21.8-11.73-32.61-17.79-53.59-30.04-107.21-60.04-160.77-90.14,25.14,108.89,122.71,190.06,239.24,190.06,88.51,0,166.07-46.84,209.27-117.07l-222.49-128.45Zm-59.01-122.82c0-31.65,25.65-57.3,57.3-57.3s57.3,25.65,57.3,57.3-25.65,57.3-57.3,57.3-57.3-25.65-57.3-57.3Z"></path></g></svg>